<?xml version="1.0" encoding="UTF-8"?>
<svg preserveAspectRatio="none" version="1.1" viewBox="0 0 1280 720" xmlns="http://www.w3.org/2000/svg">
<g transform="matrix(2.8359 0 0 2.5213 -1585.2 -741.75)">
<path d="m706.4 323.1q-0.2-1.2-1-2.45-0.8-1.35-1.75-1.8-1.95-0.95-6.4 0.9-4.35 1.8-5.8 3.95-5.35 7.85-8 11.75-4.75 7-7.8 11.9-1.05 1.75-1.95 4.9-1.3 4.65-1.5 5.15-1.35 3.85-2.6 5.75-1.1 1.6-6.25 8.75-3.85 5.35-6 8.9-2.5 4.15-3.4 6.1-1.65 3.65-1.25 6.1 1.4 9.2 3.6 15.95 2.7 8.4 7.15 14.9 6.9 9.95 13.05 21.75 4.6 8.85 4.35 18.85-0.25 9.45-4.6 15.35-1.9 2.55-10.15 3.95-11.85 2-12.05 2.05-2.4 0.75-10.95 3.6-6.8 2.3-18 5.45-11.95 3.35-11.35 11.05 0.1 1.15 0.7 2.15 2.85 4.4 7.8 3.2 3.9-0.95 11.2-2.45 7.7-1.65 11.15-2.45 2.05-0.5 8.8-2.05 1.4098-0.38652 2.6-0.8-0.15098 0.21992-0.3 0.45-3.2 4.95 1.15 9.5 3.7 3.9 7.1 3.9 27.4 0.05 73.5-9.65 26.8-5.6 35-7.1 19.013-3.3898 33.55-4.1-5.1523 0.40469-8.25 3.55-2.75 2.85-2.1 5.35 1.1 4.05 7.1 5.4 3.5 0.8 8.25 0.6 2.15-0.1 6.35-0.65 3.7-0.5 6.4-0.55 4.3 0 15.4-0.35 9.75-0.25 15.35-0.2 10.85 0.1 20.7-3.55 13.25-4.95 16.3-5.9 4-1.2 1.7 0.65-14.75 9.7-31.65 21.45-30.65 9.7-69 8.05-4.55-0.2-16-0.95-3.4-0.2-5.65-2.85-2.25-2.6-1.9-6.05l0.3-3.2q0.35-3.35-1.85-5.95-2.15-2.55-5.55-2.8h-0.1q-8.85-0.6-12.9 4.2-4.25 4.95-0.35 12.55 3 5.85 4.9 10.5 1.5 2.65 7.3 8.1 10.05 9.35 23.6 11.5 4.2 0.65 12.9 1.15 9.75 0.55 14.9 1.15 8.95 1.05 25.9-2.7 8.95-1.95 20.85-5.2 4.35-0.95 19.8-7.45 15.5-6.55 18.85-8.9 5.8-4.05 17.65-13.7 13.2-10.75 16.3-14.4 3.35-3.9 7.15-10.7 4.1-7.35 5-11.8 2.15-10.6 0.15-21.9-3.15-13.35-4.65-21.9-1.2-6.05-2.2-8.75-3.5-9.65-11.65-19.85-9.25-11.55-17-18.5-10.05-9-21-13.65-10.5-4.5-19.05-5.3-10.4-1.05-19.2 3.1-18.25 8.55-34.4 19.95-8.75 6.15-18.75 9.3-9.35 2.95-20.45 3.45-4.15 0.15-6.45-1.2-2.7-1.6-3.9-5.7-4.4-15-5.35-27.6-1.1-14.7 2.3-28 0.65-2.6-0.05-3.85-3.4-6.35-7.6-12.9-3.4-5.3-8-0.7-2.1 2.15-9.3 8.7-5.8 5.4-9 8.95-3.4 3.95-6.7 5.05-3.6 1.2-8.25-0.55-2-0.75-2.7-1.45-0.85-0.85-1.05-2.75-1.2-12.05-3-23.7z"/>
</g>
<g transform="matrix(2.3128 0 0 2.3128 -738.9 -611.65)">
<path d="m485.15 362.85q-1-2.4-2.25-3.35-5.2-3.7-11.05-4.35-3.15-0.35-6.3 0.05-3.6 0.45-5.35 1.8-5.1 4-7.45 8.85-2.55 5.2-1.7 10.85 1.05 6.9 6.15 11.15 4.8 3.95 13.35 5.75 3.75 0.75 5.8 0.05 2.2-0.8 3.1-3.45 1.7-4.6 3.85-11.45 2.45-7.6 3.65-11.35-1.25-3.2-1.8-4.55z" fill="#eeeceb"/>
</g>
<g transform="matrix(2.3675 0 0 2.3675 -761.45 -632.55)">
<path d="m501.4 366q-0.95 3.4-5.1 19.4-0.95 3.65 0.6 7.05 0.75 1.75 1.25 2.6 0.75 1.2 1.75 1.8 5.4 3.4 11.25 3.7 3.25 0.15 6.3-0.45 3.55-0.7 5.2-2.15 4.85-4.3 6.95-9.25 2.2-5.35 1-10.95-1.5-6.85-6.85-10.75-5-3.65-13.65-4.9-3.75-0.55-5.75 0.3-2.15 0.9-2.95 3.6z" fill="#eeeceb"/>
</g>
<g transform="matrix(2.7152 0 0 2.7152 -941.5 -884.5)">
<path d="m513.6 411.4q-2.25 0.95-3.35 1.4-2 0.85-3.1 1.7-5.35 4.15-5.3 10.7 0.05 6.5 5.3 12.7 4.2 4.9 8.85 0.7 8.2-7.35 8.65-16.75 0.2-4.35-2.85-7.15-3-2.8-8.2-3.3z"/>
</g>
<g transform="translate(-2.3)">
<path d="m379 243.8q0.55-11.8-7.75-19.55-8.15-7.6-22.25-8.95-6 2.55-9.1 3.9-5.3 2.35-8.3 4.65-14.5 11.25-14.4 29.05 0 17.65 14.25 34.45 11.4 13.35 24.05 1.9 22.25-20.05 23.5-45.45z"/>
</g>
<g transform="matrix(3.0389 .33127 -.33127 3.0389 -645.6 -975.55)">
<path d="m404.2 336.95q-6.6 0.1-10.45 4.3-3.4 3.7-3.75 9.3 5.6 0.8 13.7 1.1 4.55 0.15 13.65 0.4 2-5.95-0.95-10-3.35-4.6-12.2-5.1z"/>
</g>
<g transform="matrix(3.0389 .33127 -.33127 3.0389 -663.55 -915.15)">
<path d="m403.85 361.25q-7.95-0.35-13.65-1.15-0.45 7.45 4.15 11.9 5.1 5 13.05 1.75 3.65-2.3 6.35-5.55 2.6-3.2 3.75-6.6-9.05-0.2-13.65-0.35z"/>
</g>
<g transform="matrix(3.0506 .19678 -.19678 3.0506 -803.55 -943.35)">
<path d="m404.2 336.95q-6.6 0.1-10.45 4.3-3.4 3.7-3.75 9.3 5.6 0.8 13.7 1.1 4.55 0.15 13.65 0.4 2-5.95-0.95-10-3.35-4.6-12.2-5.1z"/>
</g>
<g transform="matrix(3.0506 .19678 -.19678 3.0506 -823.4 -882.3)">
<path d="m403.85 361.25q-7.95-0.35-13.65-1.15-0.45 7.45 4.15 11.9 5.1 5 13.05 1.75 3.65-2.3 6.35-5.55 2.6-3.2 3.75-6.6-9.05-0.2-13.65-0.35z"/>
</g>
</svg>
