
<svg xmlns="http://www.w3.org/2000/svg" version="1.1" xmlns:xlink="http://www.w3.org/1999/xlink" preserveAspectRatio="none" x="0px" y="0px" width="1280px" height="720px" viewBox="0 0 1280 720">
<defs/>

<g id="Cat">
<g transform="matrix( 2.83587646484375, 0, 0, 2.52130126953125, -1585.15,-741.75) ">
<g>
<g>
<path fill="#000000" stroke="none" d="
M 706.4 323.1
Q 706.2 321.9 705.4 320.65 704.6 319.3 703.65 318.85 701.7 317.9 697.25 319.75 692.9 321.55 691.45 323.7 686.1 331.55 683.45 335.45 678.7 342.45 675.65 347.35 674.6 349.1 673.7 352.25 672.4 356.9 672.2 357.4 670.85 361.25 669.6 363.15 668.5 364.75 663.35 371.9 659.5 377.25 657.35 380.8 654.85 384.95 653.95 386.9 652.3 390.55 652.7 393 654.1 402.2 656.3 408.95 659 417.35 663.45 423.85 670.35 433.8 676.5 445.6 681.1 454.45 680.85 464.45 680.6 473.9 676.25 479.8 674.35 482.35 666.1 483.75 654.25 485.75 654.05 485.8 651.65 486.55 643.1 489.4 636.3 491.7 625.1 494.85 613.15 498.2 613.75 505.9 613.85 507.05 614.45 508.05 617.3 512.45 622.25 511.25 626.15 510.3 633.45 508.8 641.15 507.15 644.6 506.35 646.65 505.85 653.4 504.3 654.809765625 503.9134765625 656 503.5 655.8490234375 503.719921875 655.7 503.95 652.5 508.9 656.85 513.45 660.55 517.35 663.95 517.35 691.35 517.4 737.45 507.7 764.25 502.1 772.45 500.6 791.462890625 497.21015625 806 496.5 800.84765625 496.9046875 797.75 500.05 795 502.9 795.65 505.4 796.75 509.45 802.75 510.8 806.25 511.6 811 511.4 813.15 511.3 817.35 510.75 821.05 510.25 823.75 510.2 828.05 510.2 839.15 509.85 848.9 509.6 854.5 509.65 865.35 509.75 875.2 506.1 888.45 501.15 891.5 500.2 895.5 499 893.2 500.85 878.45 510.55 861.55 522.3 830.9 532 792.55 530.35 788 530.15 776.55 529.4 773.15 529.2 770.9 526.55 768.65 523.95 769 520.5
L 769.3 517.3
Q 769.65 513.95 767.45 511.35 765.3 508.8 761.9 508.55
L 761.8 508.55
Q 752.95 507.95 748.9 512.75 744.65 517.7 748.55 525.3 751.55 531.15 753.45 535.8 754.95 538.45 760.75 543.9 770.8 553.25 784.35 555.4 788.55 556.05 797.25 556.55 807 557.1 812.15 557.7 821.1 558.75 838.05 555 847 553.05 858.9 549.8 863.25 548.85 878.7 542.35 894.2 535.8 897.55 533.45 903.35 529.4 915.2 519.75 928.4 509 931.5 505.35 934.85 501.45 938.65 494.65 942.75 487.3 943.65 482.85 945.8 472.25 943.8 460.95 940.65 447.6 939.15 439.05 937.95 433 936.95 430.3 933.45 420.65 925.3 410.45 916.05 398.9 908.3 391.95 898.25 382.95 887.3 378.3 876.8 373.8 868.25 373 857.85 371.95 849.05 376.1 830.8 384.65 814.65 396.05 805.9 402.2 795.9 405.35 786.55 408.3 775.45 408.8 771.3 408.95 769 407.6 766.3 406 765.1 401.9 760.7 386.9 759.75 374.3 758.65 359.6 762.05 346.3 762.7 343.7 762 342.45 758.6 336.1 754.4 329.55 751 324.25 746.4 328.85 744.3 331 737.1 337.55 731.3 342.95 728.1 346.5 724.7 350.45 721.4 351.55 717.8 352.75 713.15 351 711.15 350.25 710.45 349.55 709.6 348.7 709.4 346.8 708.2 334.75 706.4 323.1 Z"/>
</g>
</g>
</g>
</g>

<g id="eyewhite">
<g transform="matrix( 2.31280517578125, 0, 0, 2.31280517578125, -738.9,-611.65) ">
<g>
<g>
<path fill="#EEECEB" stroke="none" d="
M 485.15 362.85
Q 484.15 360.45 482.9 359.5 477.7 355.8 471.85 355.15 468.7 354.8 465.55 355.2 461.95 355.65 460.2 357 455.1 361 452.75 365.85 450.2 371.05 451.05 376.7 452.1 383.6 457.2 387.85 462 391.8 470.55 393.6 474.3 394.35 476.35 393.65 478.55 392.85 479.45 390.2 481.15 385.6 483.3 378.75 485.75 371.15 486.95 367.4 485.7 364.2 485.15 362.85 Z"/>
</g>
</g>
</g>

<g transform="matrix( 2.367523193359375, 0, 0, 2.367523193359375, -761.45,-632.55) ">
<g>
<g>
<path fill="#EEECEB" stroke="none" d="
M 501.4 366
Q 500.45 369.4 496.3 385.4 495.35 389.05 496.9 392.45 497.65 394.2 498.15 395.05 498.9 396.25 499.9 396.85 505.3 400.25 511.15 400.55 514.4 400.7 517.45 400.1 521 399.4 522.65 397.95 527.5 393.65 529.6 388.7 531.8 383.35 530.6 377.75 529.1 370.9 523.75 367 518.75 363.35 510.1 362.1 506.35 361.55 504.35 362.4 502.2 363.3 501.4 366 Z"/>
</g>
</g>
</g>
</g>

<g id="Pupils">
<g id="Layer_1" transform="matrix( 1, 0, 0, 1, 401.3,267.6) ">
<g transform="matrix( 2.7152099609375, 0, 0, 2.7152099609375, -1340.5,-1147.95) ">
<g>
<g>
<path fill="#000000" stroke="none" d="
M 513.6 411.4
Q 511.35 412.35 510.25 412.8 508.25 413.65 507.15 414.5 501.8 418.65 501.85 425.2 501.9 431.7 507.15 437.9 511.35 442.8 516 438.6 524.2 431.25 524.65 421.85 524.85 417.5 521.8 414.7 518.8 411.9 513.6 411.4 Z"/>
</g>
</g>
</g>

<g transform="matrix( 1, 0, 0, 1, -401.3,-263.45) ">
<g>
<g>
<path fill="#000000" stroke="none" d="
M 379 243.8
Q 379.55 232 371.25 224.25 363.1 216.65 349 215.3 343 217.85 339.9 219.2 334.6 221.55 331.6 223.85 317.1 235.1 317.2 252.9 317.2 270.55 331.45 287.35 342.85 300.7 355.5 289.25 377.75 269.2 379 243.8 Z"/>
</g>
</g>
</g>
</g>
</g>

<g id="eyelids">
<g transform="matrix( 3.0389404296875, 0.331268310546875, -0.331268310546875, 3.0389404296875, -645.6,-975.55) ">
<g>
<g>
<path fill="#000000" stroke="none" d="
M 404.2 336.95
Q 397.6 337.05 393.75 341.25 390.35 344.95 390 350.55 395.6 351.35 403.7 351.65 408.25 351.8 417.35 352.05 419.35 346.1 416.4 342.05 413.05 337.45 404.2 336.95 Z"/>
</g>
</g>
</g>

<g transform="matrix( 3.0389404296875, 0.331268310546875, -0.331268310546875, 3.0389404296875, -663.55,-915.15) ">
<g>
<g>
<path fill="#000000" stroke="none" d="
M 403.85 361.25
Q 395.9 360.9 390.2 360.1 389.75 367.55 394.35 372 399.45 377 407.4 373.75 411.05 371.45 413.75 368.2 416.35 365 417.5 361.6 408.45 361.4 403.85 361.25 Z"/>
</g>
</g>
</g>

<g transform="matrix( 3.05059814453125, 0.19677734375, -0.19677734375, 3.05059814453125, -803.55,-943.35) ">
<g>
<g>
<path fill="#000000" stroke="none" d="
M 404.2 336.95
Q 397.6 337.05 393.75 341.25 390.35 344.95 390 350.55 395.6 351.35 403.7 351.65 408.25 351.8 417.35 352.05 419.35 346.1 416.4 342.05 413.05 337.45 404.2 336.95 Z"/>
</g>
</g>
</g>

<g transform="matrix( 3.05059814453125, 0.19677734375, -0.19677734375, 3.05059814453125, -823.4,-882.3) ">
<g>
<g>
<path fill="#000000" stroke="none" d="
M 403.85 361.25
Q 395.9 360.9 390.2 360.1 389.75 367.55 394.35 372 399.45 377 407.4 373.75 411.05 371.45 413.75 368.2 416.35 365 417.5 361.6 408.45 361.4 403.85 361.25 Z"/>
</g>
</g>
</g>
</g>
</svg>
