<?xml version="1.0" encoding="UTF-8"?>
<svg id="a" data-name="Layer 1" xmlns="http://www.w3.org/2000/svg" viewBox="0 0 250 250">
  <defs>
    <style>
      .b {
        fill: #fff;
        stroke-width: 0px;
      }
    </style>
  </defs>
  <path class="b" d="m220.49,150.46c-14.54,45.46-33.65,68.21-77.98,71.08-26.13,1.69-49.78-4.93-69.58-20.75-29.71-23.73-43.41-54.98-33.07-93.22,7.83-28.96,26.11-49.63,52.89-63.96,31.47-16.84,61.11-9.91,90.55,3.88,9.87,4.62,17.15,13.06,21.63,23.92-1.32-.75-2.88-1.26-3.93-2.29-9.36-9.21-21.44-12.06-33.51-15.91-31.26-9.95-55.66,2.97-74.41,24.89-17.46,20.4-26.24,45.67-15.92,73.32,2.33,6.24,6.24,12.13,10.4,17.41,17.36,22,40.31,33.41,71.24,26.24,22.61-5.24,39.25-17.67,61.69-44.61Z"/>
</svg>