<?xml version="1.0" encoding="UTF-8"?>
<svg id="a" data-name="Layer 1" xmlns="http://www.w3.org/2000/svg" viewBox="0 0 250 250">
  <defs>
    <style>
      .b {
        fill: #f15a24;
        stroke-width: 0px;
      }
    </style>
  </defs>
  <path class="b" d="m207.4,97.65c-7.07-12.92-11.43-27.93-24.07-36.79-10.45-7.33-21.64-14.03-33.35-19.05-12.94-5.55-27.18-7.42-40.96-2.95-15.83,5.14-31.64,10.78-45,21.24-8.51,6.66-18.32,12.37-21.24,23.95-9.1,36.04-4.36,69.15,21.39,97.5,4.8,5.28,9.71,11.09,15.79,14.45,15.2,8.39,31.66,13.15,49.36,11.9,3.9.02,27.33-3.78,39.91-8.71,19.31-7.57,29.76-24.21,37.54-42.55,8.29-19.54,11.46-39.2.62-59Zm-69.18-41.82c-4.86-.45-8.5-.42-11.93-1.25-1.87-.45-3.38-2.38-5.05-3.64,1.34-1.72,2.65-4.87,4.04-4.91,5.89-.17,11.8.59,17.7,1.01.34.71.68,1.43,1.02,2.14-2.22,2.55-4.43,5.09-5.79,6.65Zm18.69,38.85c-1.13-.67-2.25-1.34-3.38-2.01,4.4-9.76,8.34-19.76,13.38-29.18,2.8-5.23,5.51-.05,7.84.69-6.22,10.63-12.03,20.57-17.85,30.5Zm29.32-14.28c-1.81,2.23-4.34,3.89-8.36,7.31.92-5.21,1.16-8.51,2.19-11.54.47-1.4,2.35-2.63,3.87-3.2.59-.22,2.54,1.45,2.81,2.52.38,1.55.39,3.82-.5,4.92Zm6.04,29.01c1.26-2.83,2.52-5.66,3.78-8.49.69-.22,1.38-.44,2.07-.66,1,2.62,3.28,5.66,2.6,7.72-.57,1.71-4.63,2.25-7.14,3.31-.44-.63-.87-1.25-1.31-1.88Zm12.53,27.02c-.74,2.78-2.75,5.21-4.24,7.79-1.56-1.95-3.11-3.89-5.62-7.02,2.95-2.36,5.01-4.02,7.08-5.68,1,1.66,3.13,3.61,2.78,4.91Z"/>
  <path class="b" d="m233.17,58.72c.57-3.02-2.67-6.19-5.12-4.69-7.87,4.83-15.48,10.08-23.1,15.31-.71.49-1.17,2.1-.95,2.98.2.78,1.53,1.27,3.36,2.63,8.01-4.33,16.23-8.7,24.36-13.25.8-.45,1.25-1.92,1.45-2.99Z"/>
  <path class="b" d="m31.01,125.84c-1.49-.86-2.98-1.71-4.38-2.51-8.21,1.6-15.96,2.86-23.53,4.84-1.36.35-2.26,3.6-2.69,5.65-.13.59,2.34,2.61,3.23,2.39,8.01-1.96,15.97-4.13,23.83-6.59,1.43-.45,2.37-2.48,3.54-3.78Z"/>
  <path class="b" d="m114.08,214.39c-.63,1.13-1.54,2.19-1.85,3.4-2.11,8.39-4.32,16.77-5.87,25.27-.25,1.38,2.66,3.33,4.1,5.02,1.42-1.49,3.81-2.81,4.09-4.49,1.2-7.24,1.89-14.58,2.53-21.9.18-2.07-.4-4.2-.64-6.31-.79-.33-1.58-.66-2.37-.98Z"/>
  <path class="b" d="m151.21,213.82c-.84,2.11-1.77,4.19-2.47,6.34-.4,1.24-.43,2.59-.51,3.08.52,5.7.42,10.72,1.68,15.38.5,1.87,3.86,3.27,6.2,4.13.55.2,3.35-2.79,3.18-4.05-.85-6.34-2.08-12.67-3.75-18.84-.61-2.24-2.83-4.04-4.32-6.04Z"/>
  <path class="b" d="m66.43,45.78c.95-.25,1.89-.5,2.84-.74-.27-2.63.12-5.55-.93-7.82-2.36-5.1-5.31-9.95-8.3-14.73-.83-1.33-2.97-3.16-3.89-2.86-2.15.7-4.08,2.41-5.71,4.08-.25.26,1.48,2.51,2.34,3.8,1.54,2.32,3.02,4.7,4.7,6.92,2.91,3.84,5.95,7.57,8.94,11.35Z"/>
  <path class="b" d="m37.33,175.1c-5.24,2.3-10.21,5.34-14.91,8.62-1.15.8-1.15,3.72-1.06,5.64.04.82,1.63,1.58,2.61,2.45,2.59-1.44,4.82-2.5,6.85-3.85,3.15-2.08,6.34-4.15,9.2-6.6,2.25-1.92,4.01-4.41,5.99-6.65-2.92.07-6.21-.7-8.69.38Z"/>
  <path class="b" d="m176.27,45.17c.89.45,2.78.11,3.55-.62,4.4-4.14,8.87-8.27,12.66-12.95,1.01-1.24-.25-4.41-.65-6.66-.23-1.3-.81-2.54-1.24-3.81-.56.56-1.12,1.12-1.68,1.68-.36.1-.82.1-1.07.32-5.88,5.18-10.84,11.02-12.87,18.79-.25.96.5,2.83,1.31,3.24Z"/>
  <path class="b" d="m236.2,169.96c-3.61-2.37-7.41-4.48-11.25-6.46-2.2-1.13-4.63-1.81-6.95-2.7-.35.42-.69.83-1.04,1.25.57,1.21.86,2.7,1.75,3.59,4.31,4.36,8.7,8.64,13.24,12.76,1.18,1.07,4.19,2.23,4.35,1.99,1.31-1.95,2.69-4.16,2.92-6.41.13-1.26-1.64-3.13-3.01-4.03Z"/>
  <path class="b" d="m123.17,26.9c1.19-1.31,3.21-2.49,3.42-3.94.9-6.15,1.59-12.39,1.56-18.59,0-1.39-3.08-3.33-5.05-3.87-.89-.25-3.7,2.32-3.68,3.58.12,7.42.81,14.84,1.31,22.25.81.19,1.63.38,2.44.56Z"/>
  <path class="b" d="m31.63,81.17c-.81-1.11-1.39-2.6-2.48-3.27-2.41-1.47-5.03-2.66-7.66-3.72-7.9-3.19-13.45-1.64-16.64,5.42,8.12,1.35,15.66,2.73,23.25,3.75,1.06.14,2.35-1.42,3.53-2.19Z"/>
  <path class="b" d="m200.4,205.28c-2.9-3.25-6.02-6.29-9.05-9.42l-1.91,1.48c.55,8.01,4.47,14.69,9.6,20.69.69.8,4.16.34,5.3-.69,1.09-.99,1.59-3.81.98-5.24-1.08-2.52-3.06-4.73-4.93-6.83Z"/>
  <path class="b" d="m75.21,204.11c-.95,0-2.33.48-2.78,1.21-3.63,5.93-7.37,11.82-10.4,18.05-.83,1.7.43,4.59,1.22,6.76.18.49,3.36.66,3.55.24,3.6-7.91,6.97-15.94,10.43-24.06-.91-1.05-1.47-2.22-2.02-2.21Z"/>
  <path class="b" d="m249.17,109.15c-.08-.86-1.67-2.25-2.58-2.25-6.73,0-13.48.06-20.18.62-1.54.13-2.9,2.26-4.35,3.47,1.49.93,2.94,2.56,4.49,2.67,5.07.34,10.18.13,15.27.13,2.07-.02,4.25.22,5.91-.84.95-.61,1.54-2.54,1.43-3.8Z"/>
</svg>